<svg width="103" height="17" viewBox="0 0 103 17" fill="none" xmlns="http://www.w3.org/2000/svg">
<path d="M6.55651e-07 16.44C6.55651e-07 16.104 0.00800064 15.824 0.0240006 15.6C0.0560006 15.36 0.0960006 15.152 0.144001 14.976C0.576001 14.944 0.912001 14.864 1.152 14.736C1.392 14.608 1.552 14.376 1.632 14.04C1.728 13.688 1.776 13.2 1.776 12.576V3.91199C1.776 3.288 1.736 2.816 1.656 2.496C1.576 2.16 1.416 1.928 1.176 1.79999C0.952001 1.672 0.624001 1.584 0.192001 1.536C0.128001 1.36 0.0800007 1.152 0.0480007 0.911995C0.0160007 0.655995 6.55651e-07 0.375996 6.55651e-07 0.0719957C0.336001 0.0879955 0.728001 0.103995 1.176 0.119995C1.64 0.119995 2.128 0.127995 2.64 0.143995C3.152 0.143995 3.648 0.143995 4.128 0.143995C4.608 0.143995 5.024 0.143995 5.376 0.143995V12.216C5.376 12.904 5.448 13.44 5.592 13.824C5.752 14.208 6 14.488 6.336 14.664C6.688 14.824 7.16 14.928 7.752 14.976C7.832 15.168 7.88 15.392 7.896 15.648C7.912 15.904 7.92 16.168 7.92 16.44C7.648 16.424 7.296 16.408 6.864 16.392C6.432 16.392 5.976 16.384 5.496 16.368C5.016 16.368 4.552 16.368 4.104 16.368C3.384 16.368 2.632 16.368 1.848 16.368C1.064 16.384 0.448001 16.408 6.55651e-07 16.44ZM10.488 11.688C10.152 11.688 9.856 11.68 9.6 11.664C9.344 11.632 9.104 11.576 8.88 11.496C8.816 10.76 8.624 10.264 8.304 10.008C7.984 9.752 7.4 9.624 6.552 9.624H5.016V8.208H6.552C7.432 8.208 8.024 8.08 8.328 7.824C8.648 7.568 8.816 7.088 8.832 6.384C9.072 6.288 9.336 6.224 9.624 6.192C9.912 6.16 10.2 6.144 10.488 6.144C10.472 6.544 10.456 6.968 10.44 7.416C10.424 7.864 10.416 8.344 10.416 8.856C10.416 9.416 10.424 9.936 10.44 10.416C10.456 10.88 10.472 11.304 10.488 11.688ZM10.752 4.488C10.672 3.944 10.52 3.456 10.296 3.02399C10.088 2.57599 9.736 2.216 9.24 1.944C8.744 1.672 8.04 1.536 7.128 1.536H4.536L5.208 0.143995C6.488 0.143995 7.56 0.143995 8.424 0.143995C9.304 0.127995 10.032 0.119995 10.608 0.119995C11.2 0.103995 11.672 0.0879955 12.024 0.0719957C12.04 0.455996 12.072 0.895996 12.12 1.392C12.168 1.888 12.224 2.376 12.288 2.856C12.352 3.32 12.432 3.736 12.528 4.104C12.304 4.216 12.048 4.312 11.76 4.392C11.488 4.456 11.152 4.488 10.752 4.488ZM24.7643 16.584C24.5403 16.136 24.3323 15.72 24.1403 15.336C23.9643 14.952 23.7963 14.576 23.6363 14.208C23.4763 13.84 23.3003 13.456 23.1083 13.056C22.8523 12.48 22.6043 11.984 22.3643 11.568C22.1403 11.152 21.8763 10.768 21.5723 10.416C21.2843 10.064 20.9243 9.704 20.4923 9.336L21.4523 9.576C21.0203 9.592 20.6363 9.6 20.3003 9.6C19.9643 9.6 19.6043 9.592 19.2203 9.576L19.3403 8.016C19.5803 8.048 19.7803 8.072 19.9403 8.088C20.1003 8.104 20.2523 8.112 20.3963 8.112C21.0683 8.112 21.6763 7.992 22.2203 7.752C22.7803 7.512 23.2283 7.144 23.5643 6.648C23.9163 6.152 24.0923 5.52 24.0923 4.752C24.0923 3.76 23.8283 2.976 23.3003 2.4C22.7883 1.808 21.9883 1.512 20.9003 1.512C20.6123 1.512 20.3483 1.536 20.1083 1.58399C19.8843 1.616 19.6363 1.672 19.3643 1.752L19.5323 1.104V12.432C19.5323 13.136 19.5723 13.672 19.6523 14.04C19.7483 14.392 19.8923 14.632 20.0843 14.76C20.2923 14.872 20.5643 14.944 20.9003 14.976C20.9483 15.12 20.9803 15.336 20.9963 15.624C21.0283 15.896 21.0443 16.168 21.0443 16.44C20.7243 16.424 20.3403 16.408 19.8923 16.392C19.4603 16.392 19.0203 16.384 18.5723 16.368C18.1403 16.368 17.7803 16.368 17.4923 16.368C16.9483 16.368 16.3723 16.368 15.7643 16.368C15.1723 16.384 14.6363 16.408 14.1563 16.44C14.1563 16.136 14.1643 15.864 14.1803 15.624C14.2123 15.384 14.2603 15.168 14.3243 14.976C14.7563 14.944 15.0843 14.864 15.3083 14.736C15.5483 14.608 15.7083 14.376 15.7883 14.04C15.8843 13.688 15.9323 13.2 15.9323 12.576V3.888C15.9323 3.264 15.8843 2.792 15.7883 2.47199C15.7083 2.136 15.5483 1.904 15.3083 1.776C15.0843 1.632 14.7483 1.544 14.3003 1.512C14.2523 1.32 14.2123 1.08 14.1803 0.791995C14.1643 0.487995 14.1563 0.247995 14.1563 0.0719957C14.5243 0.0879955 15.0283 0.103995 15.6683 0.119995C16.3243 0.135995 17.0043 0.143995 17.7083 0.143995C18.2523 0.143995 18.9243 0.127995 19.7243 0.0959954C20.5243 0.0639958 21.3483 0.047996 22.1963 0.047996C23.5083 0.047996 24.5803 0.239996 25.4123 0.623996C26.2443 1.008 26.8523 1.528 27.2363 2.184C27.6363 2.824 27.8363 3.544 27.8363 4.344C27.8363 5.256 27.6523 6.048 27.2843 6.72C26.9163 7.392 26.4043 7.936 25.7483 8.352C25.0923 8.752 24.3403 9.024 23.4923 9.168L23.8523 8.856C24.3163 9.144 24.7003 9.448 25.0043 9.768C25.3083 10.072 25.6123 10.472 25.9163 10.968C26.2203 11.448 26.5963 12.112 27.0443 12.96C27.3163 13.44 27.5563 13.816 27.7643 14.088C27.9723 14.36 28.2123 14.56 28.4843 14.688C28.7723 14.8 29.1323 14.872 29.5643 14.904C29.5643 15.176 29.5483 15.432 29.5163 15.672C29.5003 15.896 29.4523 16.128 29.3723 16.368C28.4443 16.368 27.5803 16.384 26.7803 16.416C25.9803 16.448 25.3083 16.504 24.7643 16.584ZM38.9758 -4.76837e-06L44.4718 12.36C44.8078 13.064 45.0718 13.6 45.2638 13.968C45.4718 14.336 45.6638 14.584 45.8398 14.712C46.0318 14.84 46.2478 14.928 46.4878 14.976C46.5518 15.184 46.5918 15.408 46.6078 15.648C46.6398 15.888 46.6558 16.152 46.6558 16.44C46.3998 16.408 46.0638 16.384 45.6478 16.368C45.2318 16.368 44.8078 16.368 44.3758 16.368C43.9598 16.368 43.6238 16.368 43.3678 16.368C43.1758 16.368 42.9198 16.368 42.5998 16.368C42.2798 16.368 41.9438 16.368 41.5918 16.368C41.2398 16.384 40.9038 16.392 40.5838 16.392C40.2798 16.408 40.0398 16.424 39.8638 16.44C39.8638 16.12 39.8798 15.848 39.9118 15.624C39.9438 15.384 39.9918 15.168 40.0558 14.976C40.6478 14.864 40.9998 14.688 41.1118 14.448C41.2238 14.192 41.1358 13.752 40.8478 13.128L38.3518 7.32C38.0158 6.584 37.7438 5.904 37.5358 5.28C37.3278 4.656 37.1358 4.008 36.9598 3.336H37.4878C37.2958 4.024 37.0958 4.696 36.8878 5.352C36.6798 5.992 36.4398 6.648 36.1678 7.32L34.0558 12.768C33.8158 13.408 33.7598 13.92 33.8878 14.304C34.0158 14.688 34.3678 14.912 34.9438 14.976C35.0078 15.168 35.0478 15.392 35.0638 15.648C35.0958 15.888 35.1118 16.152 35.1118 16.44C34.9358 16.424 34.6958 16.408 34.3918 16.392C34.1038 16.392 33.7918 16.384 33.4558 16.368C33.1358 16.368 32.8398 16.368 32.5678 16.368C32.1678 16.368 31.7678 16.368 31.3678 16.368C30.9678 16.384 30.6478 16.408 30.4078 16.44C30.4078 16.168 30.4238 15.912 30.4558 15.672C30.4878 15.432 30.5438 15.2 30.6238 14.976C30.8958 14.928 31.1278 14.832 31.3198 14.688C31.5118 14.528 31.6958 14.272 31.8718 13.92C32.0638 13.568 32.2878 13.088 32.5438 12.48L37.5598 0.119995C37.8158 0.055995 38.0398 0.0239949 38.2318 0.0239949C38.4398 0.00799513 38.6878 -4.76837e-06 38.9758 -4.76837e-06ZM40.2478 10.44L40.6078 11.76C39.5358 11.76 38.4078 11.776 37.2238 11.808C36.0558 11.84 34.9278 11.896 33.8398 11.976L34.2238 10.44H40.2478ZM57.2623 16.584L51.5743 3.91199H52.0303L51.2863 11.256C51.1903 12.248 51.1743 13.008 51.2383 13.536C51.3023 14.048 51.4623 14.408 51.7183 14.616C51.9743 14.808 52.3263 14.928 52.7743 14.976C52.8383 15.184 52.8783 15.424 52.8943 15.696C52.9103 15.952 52.9183 16.2 52.9183 16.44C52.6143 16.408 52.2143 16.384 51.7183 16.368C51.2223 16.368 50.7583 16.368 50.3263 16.368C50.0383 16.368 49.7183 16.368 49.3663 16.368C49.0143 16.384 48.6783 16.392 48.3583 16.392C48.0383 16.408 47.7823 16.424 47.5903 16.44C47.5903 16.2 47.5983 15.952 47.6143 15.696C47.6463 15.424 47.6943 15.184 47.7583 14.976C48.1743 14.928 48.5103 14.808 48.7663 14.616C49.0223 14.408 49.2303 14.04 49.3903 13.512C49.5503 12.984 49.6703 12.216 49.7503 11.208L50.3983 4.08C50.4623 3.392 50.4543 2.872 50.3743 2.52C50.3103 2.152 50.1503 1.896 49.8943 1.752C49.6543 1.608 49.3103 1.536 48.8623 1.536C48.7823 1.312 48.7343 1.08 48.7183 0.839996C48.7023 0.599995 48.6943 0.343995 48.6943 0.0719957C48.9023 0.0879955 49.1663 0.103995 49.4863 0.119995C49.8063 0.119995 50.1343 0.127995 50.4703 0.143995C50.8063 0.143995 51.0863 0.143995 51.3103 0.143995C51.5503 0.143995 51.8383 0.143995 52.1743 0.143995C52.5103 0.127995 52.8303 0.119995 53.1343 0.119995C53.4543 0.103995 53.7103 0.0879955 53.9023 0.0719957L59.4223 12.72H58.7023L63.4783 0.0719957C63.7183 0.0879955 64.0063 0.103995 64.3423 0.119995C64.6783 0.119995 65.0063 0.127995 65.3263 0.143995C65.6623 0.143995 65.9503 0.143995 66.1903 0.143995C66.4143 0.143995 66.6783 0.143995 66.9823 0.143995C67.3023 0.127995 67.6223 0.119995 67.9423 0.119995C68.2623 0.103995 68.5343 0.0879955 68.7583 0.0719957C68.7583 0.327995 68.7423 0.583995 68.7103 0.839996C68.6943 1.096 68.6543 1.328 68.5903 1.536C67.9343 1.536 67.4783 1.72 67.2223 2.088C66.9823 2.44 66.9103 3.128 67.0063 4.152L67.7743 11.808C67.8543 12.672 67.9583 13.328 68.0863 13.776C68.2143 14.208 68.3903 14.504 68.6143 14.664C68.8543 14.808 69.1743 14.904 69.5743 14.952C69.6383 15.16 69.6783 15.392 69.6943 15.648C69.7103 15.904 69.7183 16.168 69.7183 16.44C69.5423 16.424 69.2943 16.408 68.9743 16.392C68.6703 16.392 68.3263 16.384 67.9423 16.368C67.5583 16.368 67.1823 16.368 66.8143 16.368C66.4623 16.368 66.1583 16.368 65.9023 16.368C65.5663 16.368 65.1823 16.368 64.7503 16.368C64.3183 16.384 63.9023 16.392 63.5023 16.392C63.1183 16.408 62.8063 16.424 62.5663 16.44C62.5663 16.168 62.5823 15.912 62.6143 15.672C62.6463 15.432 62.6943 15.2 62.7583 14.976C63.2543 14.912 63.6143 14.808 63.8383 14.664C64.0783 14.504 64.2143 14.232 64.2463 13.848C64.2783 13.448 64.2543 12.856 64.1743 12.072L63.3103 3.91199H63.6943L58.6783 16.392C58.5023 16.456 58.2783 16.504 58.0063 16.536C57.7503 16.568 57.5023 16.584 57.2623 16.584ZM72.258 0.0959954C72.53 0.111995 72.906 0.127995 73.386 0.143995C73.866 0.143995 74.386 0.143995 74.946 0.143995C75.506 0.143995 76.05 0.143995 76.578 0.143995C77.122 0.143995 77.594 0.143995 77.994 0.143995C78.522 0.143995 79.066 0.143995 79.626 0.143995C80.202 0.143995 80.77 0.143995 81.33 0.143995C81.906 0.127995 82.458 0.111995 82.986 0.0959954C83.098 0.255995 83.186 0.439995 83.25 0.647995C83.314 0.855996 83.354 1.088 83.37 1.344C82.474 3.04 81.594 4.672 80.73 6.24C79.882 7.792 79.01 9.328 78.114 10.848C77.234 12.368 76.298 13.936 75.306 15.552L74.658 14.952H77.898C78.73 14.952 79.386 14.872 79.866 14.712C80.362 14.552 80.754 14.248 81.042 13.8C81.33 13.336 81.57 12.664 81.762 11.784C82.562 11.848 83.218 12.032 83.73 12.336C83.65 12.688 83.562 13.104 83.466 13.584C83.386 14.064 83.322 14.56 83.274 15.072C83.226 15.568 83.194 16.024 83.178 16.44C82.474 16.408 81.77 16.384 81.066 16.368C80.362 16.368 79.666 16.368 78.978 16.368C78.29 16.368 77.61 16.368 76.938 16.368C75.914 16.368 74.922 16.368 73.962 16.368C73.018 16.384 72.242 16.408 71.634 16.44C71.522 16.264 71.434 16.072 71.37 15.864C71.306 15.656 71.274 15.432 71.274 15.192C72.026 13.944 72.738 12.736 73.41 11.568C74.098 10.4 74.77 9.248 75.426 8.112C76.082 6.976 76.73 5.832 77.37 4.68C78.01 3.512 78.658 2.312 79.314 1.08L80.226 1.536H76.794C76.202 1.536 75.714 1.624 75.33 1.79999C74.946 1.96 74.626 2.28 74.37 2.76C74.13 3.224 73.914 3.912 73.722 4.824C73.354 4.824 72.986 4.808 72.618 4.776C72.266 4.728 71.97 4.648 71.73 4.536C71.922 3.896 72.058 3.16799 72.138 2.35199C72.218 1.536 72.258 0.783995 72.258 0.0959954ZM93.9486 10.08V12.024C93.9486 12.84 93.9966 13.448 94.0926 13.848C94.1886 14.248 94.3886 14.52 94.6926 14.664C95.0126 14.808 95.4766 14.912 96.0846 14.976C96.1646 15.216 96.2126 15.448 96.2286 15.672C96.2606 15.896 96.2766 16.152 96.2766 16.44C95.6686 16.408 94.9966 16.384 94.2606 16.368C93.5246 16.368 92.8126 16.368 92.1246 16.368C91.6606 16.368 91.1646 16.368 90.6366 16.368C90.1246 16.384 89.6286 16.392 89.1486 16.392C88.6846 16.408 88.2686 16.424 87.9006 16.44C87.9166 16.168 87.9326 15.904 87.9486 15.648C87.9806 15.392 88.0366 15.168 88.1166 14.976C88.8046 14.912 89.3006 14.816 89.6046 14.688C89.9246 14.56 90.1326 14.312 90.2286 13.944C90.3246 13.56 90.3726 12.96 90.3726 12.144V10.08H93.9486ZM93.1326 12.072H91.2606L86.7246 2.952C86.4686 2.44 86.2126 2.08 85.9566 1.872C85.7006 1.664 85.3966 1.552 85.0446 1.536C84.9806 1.312 84.9326 1.088 84.9006 0.863996C84.8846 0.639996 84.8766 0.383996 84.8766 0.0959954C85.1806 0.111995 85.5326 0.127995 85.9326 0.143995C86.3326 0.143995 86.7326 0.143995 87.1326 0.143995C87.5326 0.143995 87.8846 0.143995 88.1886 0.143995C88.4926 0.143995 88.8686 0.143995 89.3166 0.143995C89.7806 0.143995 90.2446 0.143995 90.7086 0.143995C91.1726 0.127995 91.5406 0.111995 91.8126 0.0959954C91.8126 0.399995 91.7966 0.655995 91.7646 0.863996C91.7486 1.072 91.7166 1.288 91.6686 1.512C91.1086 1.576 90.8046 1.768 90.7566 2.088C90.7086 2.408 90.8286 2.872 91.1166 3.48C91.4366 4.152 91.7966 4.952 92.1966 5.88C92.6126 6.792 93.0126 7.736 93.3966 8.712H93.2526C93.6846 7.704 94.0926 6.768 94.4766 5.904C94.8606 5.04 95.2126 4.264 95.5326 3.57599C95.8526 2.904 95.9486 2.416 95.8206 2.112C95.7086 1.792 95.3886 1.6 94.8606 1.536C94.7966 1.312 94.7486 1.088 94.7166 0.863996C94.6846 0.639996 94.6686 0.383996 94.6686 0.0959954C95.0206 0.111995 95.4046 0.127995 95.8206 0.143995C96.2366 0.143995 96.6526 0.143995 97.0686 0.143995C97.4366 0.143995 97.8046 0.143995 98.1726 0.143995C98.5406 0.127995 98.8926 0.111995 99.2286 0.0959954C99.2286 0.383996 99.2126 0.639996 99.1806 0.863996C99.1486 1.088 99.1086 1.304 99.0606 1.512C98.7086 1.592 98.3726 1.8 98.0526 2.13599C97.7486 2.456 97.4126 3.008 97.0446 3.792L93.1326 12.072ZM100.884 16.584C100.228 16.584 99.7158 16.4 99.3478 16.032C98.9798 15.664 98.7958 15.184 98.7958 14.592C98.7958 13.984 99.0038 13.496 99.4198 13.128C99.8518 12.744 100.38 12.552 101.004 12.552C101.612 12.552 102.092 12.752 102.444 13.152C102.812 13.552 102.996 13.984 102.996 14.448C102.996 15.088 102.796 15.608 102.396 16.008C102.012 16.392 101.508 16.584 100.884 16.584Z" fill="white"/>
</svg>
